<svg xmlns="http://www.w3.org/2000/svg" viewBox="0 0 91.14 113.58"><defs><style>.cls-1{fill:#ffdbb3;}.cls-2{fill:#f9f9f9;}.cls-3,.cls-5{fill:#fee867;}.cls-4{fill:#fff;}.cls-5,.cls-6,.cls-7,.cls-8{stroke:#f9f9f9;}.cls-5,.cls-6,.cls-7{stroke-miterlimit:10;}.cls-6{fill:#fefefd;}.cls-7{fill:#fb9f4d;}.cls-8{fill:none;stroke-linecap:square;stroke-linejoin:bevel;stroke-width:8px;}.cls-9{fill:#2e3009;}.cls-10{fill:#f9f9f2;}.cls-11{fill:#f9e7d7;}</style></defs><title>BABY</title><g id="Capa_5" data-name="Capa 5"><path class="cls-1" d="M99.68,28a7.52,7.52,0,0,1-1.88-7.07l1.1,0L99,22.4h.83a25.05,25.05,0,0,0,0-3,3.64,3.64,0,0,1-1.35-3.33c.39-.32,1,0,1.24.44a15.23,15.23,0,0,1,.56,1.47c.22.47.69.9,1.16.74l.14.58.19-2.81c.15-.37.71-.27.91.07a2.36,2.36,0,0,1,.16,1.19,1.27,1.27,0,0,0,.39,1.09.81.81,0,0,0,1.06-.33,2.87,2.87,0,0,0,.36-1.25,2.41,2.41,0,0,1,1.24-.25l0,3c.76.11,1-1.32,1.75-1.51,0,2.5.53,6.39.54,8.89" transform="translate(-19.3 -6.94)"/><path class="cls-2" d="M99.68,28a7,7,0,0,1-2-3.25,7.47,7.47,0,0,1-.14-3.9l.27-.21,1.1-.05.32.3.09,1.49L99,22.05l.83,0-.36.34-.07-2.92.17.32A4.08,4.08,0,0,1,98,16l.16-.29a1.07,1.07,0,0,1,.93-.2,1.53,1.53,0,0,1,.7.39,2.7,2.7,0,0,1,.64,1.19,2.93,2.93,0,0,0,.38.89c.17.23.38.3.43.26l.64.35.14.58-1,.08c0-.94.13-1.87.2-2.8l0-.15a.87.87,0,0,1,.64-.52,1.07,1.07,0,0,1,.67.1,1.1,1.1,0,0,1,.47.46,1.62,1.62,0,0,1,.17.5,10.54,10.54,0,0,0,.1,1.43c.06.15.11.19.16.19a.41.41,0,0,0,.31-.13,2,2,0,0,0,.37-1.14l.24-.34a2.85,2.85,0,0,1,1.46-.29l.4.42c0,1,0,2,0,3l-.32-.36c.07,0,.12,0,.24-.1a2.68,2.68,0,0,0,.33-.41,5.54,5.54,0,0,1,.39-.51,1.34,1.34,0,0,1,.66-.43l.39.31c0,1.46.09,2.95.14,4.43s.15,3,.08,4.46c-.18-3-.76-5.88-.85-8.89l.39.31c-.2.05-.42.37-.64.71a3.29,3.29,0,0,1-.41.54,1,1,0,0,1-.84.32l-.32-.36c0-1-.08-2-.1-3l.4.42a2,2,0,0,0-1,.22l.24-.34a2.75,2.75,0,0,1-.61,1.67,1.3,1.3,0,0,1-1.06.4,1.15,1.15,0,0,1-.91-.78,7.31,7.31,0,0,1-.16-1.58.67.67,0,0,0-.07-.21.15.15,0,0,0-.07-.06h-.06s.08,0,.08-.06l0-.15c-.06.94-.1,1.87-.18,2.81l-1,.08-.13-.58.64.35a1.18,1.18,0,0,1-.93-.09,1.76,1.76,0,0,1-.58-.51,3.7,3.7,0,0,1-.51-1.19,1.9,1.9,0,0,0-.38-.81c-.19-.19-.39-.2-.42-.15l.16-.29A3.21,3.21,0,0,0,100,19.09l.17.32,0,3-.36.34-.83,0-.35-.33,0-1.49.32.3h-1.1l.27-.21A7.54,7.54,0,0,0,99.68,28Z" transform="translate(-19.3 -6.94)"/><path class="cls-1" d="M37.8,20.51a7.75,7.75,0,0,0,4.56-6.21l-1.1-.45-.62,1.44L39.81,15a25.6,25.6,0,0,1,1.13-2.9,3.77,3.77,0,0,0,2.62-2.75c-.28-.46-1-.39-1.41-.05A15.73,15.73,0,0,0,41,10.48c-.4.38-1,.61-1.44.28l-.36.52.87-2.82c0-.42-.62-.55-.95-.29a2.42,2.42,0,0,0-.61,1.11c-.15.4-.4.83-.81.91a.89.89,0,0,1-.95-.74,3,3,0,0,1,.11-1.37,2.67,2.67,0,0,0-1.15-.73l-1.19,3c-.81-.19-.52-1.69-1.2-2.16-.95,2.45-2.95,6.06-3.89,8.52" transform="translate(-19.3 -6.94)"/><path class="cls-2" d="M37.8,20.51a7.76,7.76,0,0,0,4.28-6.24l.17.29-1.11-.43.4-.17L41,15.42l-.44.19-.85-.3-.22-.45,1.09-3,.28-.23a3.34,3.34,0,0,0,2.28-2.44l.05.34c0-.09-.26-.15-.53,0a2,2,0,0,0-.7.65,3.8,3.8,0,0,1-1,1,1.85,1.85,0,0,1-.77.27,1.25,1.25,0,0,1-.93-.26L40,11l-.36.52-.88-.43c.28-.95.58-1.88.88-2.82l0,.16s0,.08,0,.06a.18.18,0,0,0-.1,0,.21.21,0,0,0-.11,0,.71.71,0,0,0-.16.18,7.5,7.5,0,0,1-.77,1.5,1.19,1.19,0,0,1-1.17.4,1.38,1.38,0,0,1-.88-.76,2.82,2.82,0,0,1,0-1.88l.11.4a2.24,2.24,0,0,0-1-.62l.53-.25c-.4,1-.83,2-1.24,2.94l-.43.22a1.07,1.07,0,0,1-.7-.62,3.43,3.43,0,0,1-.21-.68,1.74,1.74,0,0,0-.39-1l.47-.14c-1.23,2.92-2.9,5.55-4.19,8.4.49-1.48,1.15-2.91,1.78-4.34S32.52,9.49,33.05,8l.47-.14a1.41,1.41,0,0,1,.49.66,5.83,5.83,0,0,1,.2.65,2.82,2.82,0,0,0,.18.54c.08.14.14.19.23.21l-.43.22c.38-1,.74-2,1.14-3l.53-.25a3.1,3.1,0,0,1,1.35.84l.11.4a2.09,2.09,0,0,0-.05,1.28.49.49,0,0,0,.29.27c.07,0,.15,0,.27-.13s.31-.77.65-1.38a1.66,1.66,0,0,1,.37-.43,1.16,1.16,0,0,1,.63-.25,1.13,1.13,0,0,1,.68.16.89.89,0,0,1,.43.73l0,.16c-.28.94-.56,1.89-.86,2.83L38.82,11l.36-.52.71-.1c.06.08.31.08.58-.08a3,3,0,0,0,.73-.74,2.77,2.77,0,0,1,1.1-.92,1.62,1.62,0,0,1,.83-.1,1.14,1.14,0,0,1,.82.53l.05.34a4.21,4.21,0,0,1-3,3.06l.28-.23-1.17,2.83-.22-.45.83.34-.44.19L41,13.72l.4-.17,1.09.48.17.29A7.66,7.66,0,0,1,41,18.11,7.26,7.26,0,0,1,37.8,20.51Z" transform="translate(-19.3 -6.94)"/></g><g id="Capa_4" data-name="Capa 4"><path class="cls-3" d="M75.9,42.21c0,1,2.57,1.72,3.54,2,3.93,1.26,13.93-1.52,17.59-3.71,4-2.39.7-20.06,7.25-14.63l3.5,1.6c1.74,6,1.44,15-1.45,20.66,0,0-3.72,7.67-6,9.29-5.41,3.91-12.08,5-13.56,11.54L87,73.78l1.62,3.87,1.89-1.46C97,68.26,105,72.13,105.71,80.75c.27,3.32-1,10-1.71,13.23-1.36,6.05-5.44,6.69-7.89,11.31-.26.49,20.43,8.88,2,11.91l-5.11,0c-14.26.71-6.31-19.92-8.59-17.84-9.81,9-10.88,7.25-19.41,8.11-2.31.23-8.87-1.61-9.81-1.49-5.12.64-11.52-11.09-13.65-7.25-1.76,3.16-3.2-8.53.66,5.1,1.34,4.73,1.71,10.78-7.53,12.19a61.89,61.89,0,0,1-10.61.58,2.13,2.13,0,0,1-.72-.1,1.83,1.83,0,0,1-.68-.94c-.14-1,1.13-3,1.89-3.65s3.12-1.09,4.07-1.65,3.13-1.53,3.17-2.55c.07-1.95.09-3.45-1.22-4.9-4.35-4.84-7.16-7.28-6.1-15.38.81-6.15,7-13.44,13.55-10.83s7.15-3.89,6.93-7.52C44.27,58.17,37.11,55.4,28.69,49c-1-.73-2.23-2.62-3.17-3.35A9.89,9.89,0,0,1,21.87,37,126.24,126.24,0,0,1,25,23.7a17.55,17.55,0,0,1,4.58-6.35c1.69-1.31,5.65-.54,6.92,1.19,1.44,2,.23,4.84-.91,6.54a33,33,0,0,0-2.79,4.52,43.12,43.12,0,0,0,.6,6.56c1.49,3.63,12.91,6.6,17.92,3.2" transform="translate(-19.3 -6.94)"/><path class="cls-4" d="M75.9,42.21c0,.46.47.72.83.93a7.37,7.37,0,0,0,1.2.5,14.17,14.17,0,0,0,2.52.62,18.61,18.61,0,0,0,5.16-.42,42.92,42.92,0,0,0,5-1.35,34.18,34.18,0,0,0,4.79-1.93c.38-.19.74-.4,1.09-.61a1.76,1.76,0,0,0,.37-.29,2.25,2.25,0,0,0,.29-.4,7.14,7.14,0,0,0,.74-2.21,47.34,47.34,0,0,0,.56-5.13,28.56,28.56,0,0,1,.75-5.44A5.82,5.82,0,0,1,99.89,25a2.84,2.84,0,0,1,1.81-1.29,3.35,3.35,0,0,1,2.05.35c.24.13.5.27.72.42l.63.45-.29-.18,3.53,1.51.76.88a34.59,34.59,0,0,1,1.17,13.14,27.54,27.54,0,0,1-1.39,6.58,49.31,49.31,0,0,1-2.81,6c-.52,1-1.05,1.91-1.65,2.85a17.56,17.56,0,0,1-2.17,2.88l-.45.4-.23.19-.17.12-.7.5c-.47.33-.94.62-1.42.92-.95.57-1.9,1.12-2.82,1.62a27.15,27.15,0,0,0-4.89,3.16,7.32,7.32,0,0,0-2.41,4.06l.06-.62.23,4.78-.19-.87,1.67,3.85-3.9-1,1.87-1.48-.41.4A17.08,17.08,0,0,1,92.39,71a10.88,10.88,0,0,1,5.53-1.82,9.35,9.35,0,0,1,5.86,1.91,11.68,11.68,0,0,1,3.55,4.6A15.68,15.68,0,0,1,108.6,81a32.09,32.09,0,0,1-.21,4.93c-.17,1.55-.4,3.07-.66,4.58l-.41,2.26-.23,1.13c-.08.38-.15.73-.27,1.2a14.54,14.54,0,0,1-2.32,5.09,31,31,0,0,1-3.35,3.62,11.81,11.81,0,0,0-2.2,2.8l-.05.09,0,0h0a3.4,3.4,0,0,0,.36-1.3,3.18,3.18,0,0,0-.36-1.62,2.82,2.82,0,0,0-.16-.27,2.92,2.92,0,0,0-.39-.46l-.1-.09-.14-.11,0,0,.32.18.94.51c.66.35,1.35.72,2,1.11a31.61,31.61,0,0,1,4.14,2.74,12.73,12.73,0,0,1,2.11,2.1,7.28,7.28,0,0,1,1,1.73,5.18,5.18,0,0,1-.82,5.34,7.2,7.2,0,0,1-1.55,1.38,12.66,12.66,0,0,1-2.74,1.31,30.75,30.75,0,0,1-4.87,1.2l-.56,0H93.53c-.36,0-.77,0-1.2,0s-1,0-1.47-.06a11.92,11.92,0,0,1-3.11-.68,9.76,9.76,0,0,1-3-1.75,10,10,0,0,1-2.19-2.69,14.55,14.55,0,0,1-1.66-5.74,29.34,29.34,0,0,1,0-5.21c.07-.83.16-1.64.25-2.42s.2-1.58.24-2.11c0-.1,0-.25,0-.1a1.66,1.66,0,0,0,0,.23,2.32,2.32,0,0,0,.08.33,3.26,3.26,0,0,0,2.86,2.25,3.12,3.12,0,0,0,1.29-.16,3,3,0,0,0,.55-.25c.15-.08.27-.18.28-.19l.14-.11h0l-.06,0-.22.2-.44.4c-.59.53-1.18,1.06-1.8,1.58a47.18,47.18,0,0,1-3.92,3.07,19.08,19.08,0,0,1-5,2.54,22.62,22.62,0,0,1-5.36.84c-1.58.1-3,.18-4.47.33a13.31,13.31,0,0,1-3.11-.13c-.86-.12-1.67-.26-2.46-.41l-2.31-.46c-.74-.15-1.51-.31-2.09-.41l-.24,0h.26l.13,0h-.1l-.59,0a7.65,7.65,0,0,1-2.13-.27,11.16,11.16,0,0,1-3-1.42,29.54,29.54,0,0,1-4-3.32c-1.14-1.08-2.25-2.17-3.13-2.84a3.64,3.64,0,0,0-.45-.3c-.05,0,0,0,.07,0a.74.74,0,0,0,.24,0,1.63,1.63,0,0,0,.43,0,2.32,2.32,0,0,0,1.1-.39,2.13,2.13,0,0,0,.52-.5,8.49,8.49,0,0,1-.55.77,4.24,4.24,0,0,1-1.11.93,3.9,3.9,0,0,1-2.44.5,4,4,0,0,1-1.94-.82,4.51,4.51,0,0,1-.81-.83,5.93,5.93,0,0,1-.69-1.18,7.5,7.5,0,0,1-.6-2.09,4.89,4.89,0,0,1,0-.5,4.14,4.14,0,0,1,0-.47,3.63,3.63,0,0,1,.31-1.18c-.1-1.08,3.26-2.79,4.55-1.75a3.51,3.51,0,0,1,1.21.87,4,4,0,0,1,.48.63,7.34,7.34,0,0,1,.49,1c.2.48.35.88.5,1.29.56,1.59,1,3.09,1.43,4.61.2.72.45,1.62.63,2.49a17.83,17.83,0,0,1,.36,2.81,11.06,11.06,0,0,1-1.5,6.36A10.86,10.86,0,0,1,39.67,118a17.39,17.39,0,0,1-2.74.9c-.88.17-1.81.37-2.62.46-1.64.21-3.22.33-4.83.42a49.31,49.31,0,0,1-4.93.07l-.67,0h-.22c-.14,0-.32,0-.61-.06a4.24,4.24,0,0,1-.62-.14,3.7,3.7,0,0,1-.57-.23,3.58,3.58,0,0,1-.49-.29,4.57,4.57,0,0,1-.73-.64,5.49,5.49,0,0,1-.85-1.2,4,4,0,0,1-.45-1.42,4.79,4.79,0,0,1,0-1,5.77,5.77,0,0,1,.27-1.29,9,9,0,0,1,.74-1.65,12.22,12.22,0,0,1,.87-1.32c.16-.21.34-.43.53-.65l.34-.36.2-.2.31-.26a6.91,6.91,0,0,1,1.89-1c.49-.18.9-.3,1.28-.42l1-.3.24-.09s-.08,0,0,0l.32-.18a15.33,15.33,0,0,0,1.6-.92c.14-.07.18-.23-.1.23a1.57,1.57,0,0,0-.12.27c0,.08-.07.21-.1.37a1.86,1.86,0,0,0,0,.23c0,.08,0,.17,0,.11v-.14l0-.53a5.53,5.53,0,0,0-.08-1.39,1.27,1.27,0,0,0-.11-.3l-.1-.15-.07-.09,0-.05-.09-.11L26.54,103a30,30,0,0,1-3.15-4.08,14.47,14.47,0,0,1-2-5.41,21,21,0,0,1-.08-5.38c.05-.43.09-.83.15-1.28s.17-.95.28-1.42l.39-1.35.5-1.29a17.09,17.09,0,0,1,7.25-8.25,10.9,10.9,0,0,1,6-1.35c.53.07,1.06.13,1.58.24s1,.31,1.51.49l.82.3c.25.08.45.09.67.17s.61,0,.68,0a1.23,1.23,0,0,0,.46-.48,8.07,8.07,0,0,0,.72-3.28,13.11,13.11,0,0,0,0-2,14.46,14.46,0,0,0-.25-2,13,13,0,0,0-1.19-3.7,18.47,18.47,0,0,0-5.34-6.08c-2.28-1.84-4.84-3.59-7.32-5.53l-.47-.36c-.17-.14-.27-.2-.54-.43a10.05,10.05,0,0,1-1-1L24.7,47.71l-.3-.32a3.63,3.63,0,0,0-.31-.28,11.74,11.74,0,0,1-1-1,11.35,11.35,0,0,1-1.65-2.26A12.08,12.08,0,0,1,20,38.63a11.86,11.86,0,0,1,0-1.34,7.07,7.07,0,0,1,.06-.75l.11-.65c.16-.8.33-1.55.5-2.32.71-3,1.48-6,2.4-9l.36-1.13c0-.17.15-.43.24-.66s.19-.44.29-.63A17,17,0,0,1,25.27,20a18.65,18.65,0,0,1,3.41-3.71,5.11,5.11,0,0,1,3-.91,8.55,8.55,0,0,1,2.69.41,6.73,6.73,0,0,1,2.47,1.35,4.38,4.38,0,0,1,1.43,2.73,8.08,8.08,0,0,1-1.34,5.09c-.45.74-.93,1.34-1.37,2s-.88,1.23-1.28,1.85c-.2.31-.38.62-.54.92l-.1.22c0,.07,0,0,0,0s0,0,0,0,0,.33,0,.5c0,.74.05,1.5.1,2.26s.11,1.52.18,2.27l.11,1a3.18,3.18,0,0,0,.49.77A10,10,0,0,0,38.09,39a21.34,21.34,0,0,0,4.32,1.29,19.19,19.19,0,0,0,4.53.29,9.37,9.37,0,0,0,4.36-1.24A9.53,9.53,0,0,1,47,40.92a19.68,19.68,0,0,1-4.66,0,22.16,22.16,0,0,1-4.58-1,10.59,10.59,0,0,1-4.2-2.42,4.34,4.34,0,0,1-.79-1.13,2.89,2.89,0,0,1-.1-.4l-.06-.3-.1-.58c-.12-.77-.22-1.54-.32-2.31s-.18-1.54-.24-2.34c0-.21,0-.39,0-.65a1.27,1.27,0,0,1,0-.26,1.47,1.47,0,0,1,.08-.31c0-.1.08-.22.13-.31.17-.4.36-.76.56-1.11.39-.7.81-1.36,1.22-2s.85-1.3,1.17-1.89a6.16,6.16,0,0,0,.85-3.69A2,2,0,0,0,35.21,19a4.32,4.32,0,0,0-1.6-.74A6,6,0,0,0,31.76,18a2.44,2.44,0,0,0-1.36.43,16.28,16.28,0,0,0-2.64,3.21,14,14,0,0,0-1,1.81c-.07.15-.11.29-.17.43s-.08.23-.13.43l-.29,1.08c-.73,2.92-1.36,5.92-1.95,8.9-.14.74-.28,1.49-.39,2.2l-.07.48a4,4,0,0,0,0,.4,8.67,8.67,0,0,0,1.16,4.47A7.3,7.3,0,0,0,26,43.3a7.63,7.63,0,0,0,.68.59c.06,0,.41.33.56.48s.35.34.51.5c.6.64,1.1,1.23,1.57,1.74a5.91,5.91,0,0,0,.61.59l.83.6c2.43,1.76,5,3.38,7.6,5.3a22.78,22.78,0,0,1,6.88,7.52,18.09,18.09,0,0,1,1.77,5,19.36,19.36,0,0,1,.39,2.55,18.07,18.07,0,0,1,.13,2.6,13,13,0,0,1-1.22,5.66,6.7,6.7,0,0,1-2.7,2.77,6.78,6.78,0,0,1-3.81.67c-.53-.09-1.09-.18-1.58-.32l-1.35-.45c-.23-.05-.46-.12-.69-.2s-.47,0-.7-.08a5.22,5.22,0,0,0-2.85.78,11.74,11.74,0,0,0-4.52,5.52l-.32.86-.24.86-.15.85-.1,1a15,15,0,0,0,.1,3.81,8.23,8.23,0,0,0,1.24,3.15,24.4,24.4,0,0,0,2.55,3.15l1.56,1.69.24.28c.1.12.2.23.29.36a8.07,8.07,0,0,1,.54.8,7.61,7.61,0,0,1,.77,1.82A11.26,11.26,0,0,1,35,107v.78l0,.25c0,.12,0,.25-.05.37a3.27,3.27,0,0,1-.18.65,5.32,5.32,0,0,1-.24.54,5.9,5.9,0,0,1-1.69,1.88,19.43,19.43,0,0,1-2.35,1.45l-.18.1c-.07,0-.36.2-.5.26-.32.15-.59.26-.83.34-.48.17-.87.29-1.23.41s-.67.22-.91.31-.42.22-.16,0l.09-.08h0l-.05.06-.19.25a5.7,5.7,0,0,0-.38.61,2.45,2.45,0,0,0-.2.45s0,0,0-.16a1.91,1.91,0,0,0,0-.39,2.54,2.54,0,0,0-.26-.87,1.08,1.08,0,0,0-.18-.27,1.72,1.72,0,0,0-.3-.26,2.59,2.59,0,0,0-.37-.22,2.91,2.91,0,0,0-.44-.17,2.42,2.42,0,0,0-.34-.08c-.11,0-.09,0,0,0l.35,0,.48,0c1.33,0,2.82,0,4.28-.11s3-.22,4.36-.4c.72-.08,1.29-.23,1.92-.34a10.71,10.71,0,0,0,1.63-.54,4.15,4.15,0,0,0,2-1.52,4.34,4.34,0,0,0,.48-2.5,11.08,11.08,0,0,0-.24-1.75c-.13-.63-.29-1.21-.51-2-.42-1.43-.86-2.88-1.32-4.18-.11-.32-.24-.63-.34-.86s-.12-.24,0-.07a2.49,2.49,0,0,0,.31.4,3.17,3.17,0,0,0,1.1.78c1.25,1,4.55-.67,4.44-1.7a3.16,3.16,0,0,0,.28-1,2.68,2.68,0,0,0,0-.32,2,2,0,0,0,0-.21c0-.16,0,.12.05.12s0,0-.12-.18a2.32,2.32,0,0,0-.42-.42,2.9,2.9,0,0,0-1.42-.58,3.07,3.07,0,0,0-1.89.37,2.61,2.61,0,0,0-.68.55c-.17.2-.31.45.1-.18a4.88,4.88,0,0,1,1.31-1.32,4.62,4.62,0,0,1,2.17-.77,5.58,5.58,0,0,1,1,0,8.16,8.16,0,0,1,.81.16,6.92,6.92,0,0,1,1.13.45,10,10,0,0,1,1.5.94c1.56,1.2,2.62,2.3,3.73,3.32a23.43,23.43,0,0,0,3.07,2.53,4.48,4.48,0,0,0,1.11.55l.15,0h0l.27,0h.55c.37,0,.69.07.9.11.94.15,1.67.31,2.44.47l2.21.46c.72.14,1.42.27,2.08.36a7.67,7.67,0,0,0,1.48.12c1.61-.15,3.24-.24,4.72-.32a16.28,16.28,0,0,0,3.74-.52,12.3,12.3,0,0,0,3.19-1.63,40.66,40.66,0,0,0,3.35-2.6c.56-.46,1.12-1,1.67-1.46l.42-.37.21-.19.17-.15.25-.2a3.49,3.49,0,0,1,.4-.27,3.39,3.39,0,0,1,.68-.31,3.47,3.47,0,0,1,1.43-.18,3.53,3.53,0,0,1,1.9.74,3.49,3.49,0,0,1,.93,1.09,3.64,3.64,0,0,1,.3.72,4.73,4.73,0,0,1,.11.46c0,.17.06.38.06.52a7.35,7.35,0,0,1,0,1.06c-.08,1-.2,1.71-.29,2.47s-.18,1.46-.24,2.16a22.74,22.74,0,0,0,0,4,8,8,0,0,0,.81,3.08,3,3,0,0,0,1.65,1.43,5.22,5.22,0,0,0,1.38.3c.27,0,.54,0,.83,0s.7,0,1.1,0l4.7.07-.56,0a24.63,24.63,0,0,0,3.8-.85,6.69,6.69,0,0,0,1.3-.56c.12-.08.17-.13.12-.07a1.31,1.31,0,0,0-.23.6,1.18,1.18,0,0,0,.05.56.74.74,0,0,0-.12-.19,6.54,6.54,0,0,0-1-1,25.58,25.58,0,0,0-3.26-2.22c-.6-.36-1.22-.7-1.86-1.06l-1-.56c-.18-.11-.36-.21-.64-.39l-.27-.19-.25-.2L94,107.6a3.45,3.45,0,0,1-.62-.81,3.28,3.28,0,0,1-.37-1.65,3.51,3.51,0,0,1,.37-1.34v0l0-.08.09-.15a18.07,18.07,0,0,1,3.33-4.16,26.91,26.91,0,0,0,2.77-2.85,8.4,8.4,0,0,0,1.39-3c.08-.25.16-.63.24-1l.23-1.05.42-2.12c.27-1.42.5-2.83.69-4.23a27.19,27.19,0,0,0,.3-4,10.07,10.07,0,0,0-.69-3.35,6.17,6.17,0,0,0-1.73-2.45,3.86,3.86,0,0,0-2.42-.9c-1.8,0-3.9,1.34-5.56,3.26l-.41.4-1.91,1.43-3.9-1-1.56-3.89-.19-.87-.1-4.78.06-.62A12,12,0,0,1,86,64.84,12.26,12.26,0,0,1,88.57,62a31,31,0,0,1,5.83-3.51c.95-.48,1.84-.94,2.72-1.43.42-.25.86-.49,1.26-.75l.61-.4.15-.1.07-.06.15-.12a14.09,14.09,0,0,0,1.69-2.11c.56-.82,1.09-1.69,1.61-2.57a46.69,46.69,0,0,0,2.78-5.35,25.69,25.69,0,0,0,1.45-5.71,31.62,31.62,0,0,0-.47-12l.75.87-3.46-1.68-.29-.18-.43-.34c-.14-.1-.27-.17-.41-.27a1.48,1.48,0,0,0-.48-.18s-.09,0-.25.21a3.55,3.55,0,0,0-.42.88,29.72,29.72,0,0,0-.94,4.94,48.67,48.67,0,0,1-.91,5.3,8.62,8.62,0,0,1-1.11,2.69,3.77,3.77,0,0,1-.53.63,3.46,3.46,0,0,1-.69.49c-.41.22-.83.43-1.24.6a40.05,40.05,0,0,1-10.31,2.73,19.11,19.11,0,0,1-5.33.05,14.39,14.39,0,0,1-2.53-.82,7.5,7.5,0,0,1-1.18-.6C76.32,43,75.91,42.68,75.9,42.21Z" transform="translate(-19.3 -6.94)"/><path class="cls-5" d="M74,67a11.67,11.67,0,0,0-1.09-4.38,13.65,13.65,0,0,0-3.32-5.36,5.87,5.87,0,0,0-8.07-.41,10.29,10.29,0,0,0-2.36,2.74,22.09,22.09,0,0,0-1.93,4.33,9.24,9.24,0,0,0-.54,4.17A8.68,8.68,0,0,0,74,67ZM73.4,79a3.5,3.5,0,0,0,1.52-.9,7.92,7.92,0,0,0,2.15-3.34c1-3,.59-5.88-.25-8.78a.47.47,0,0,0-.5-.36A1.55,1.55,0,0,0,74.76,67a7.7,7.7,0,0,0-.24,2.81c.14,1.62.23,3.24.23,4.86a8.78,8.78,0,0,1-.37,2.86A7.39,7.39,0,0,1,73.4,79Zm-16.28,0a4.43,4.43,0,0,1-1.33-2.64,15.65,15.65,0,0,1-.12-2.59c.07-1.83.3-3.65.25-5.49A3.59,3.59,0,0,0,55.22,66,1.31,1.31,0,0,0,54,65.65c-.27,0-.31.25-.36.44a19.05,19.05,0,0,0-.8,5,9.73,9.73,0,0,0,1.61,5.73A5.3,5.3,0,0,0,57.13,79.07Zm8.13,7.16a2.39,2.39,0,0,0,.33-.14,8.21,8.21,0,0,0,2.55-2.29,2,2,0,0,0,.37-.84c0-.11.06-.26-.1-.32s-.24.07-.29.22a5.59,5.59,0,0,1-2.43,2.69.62.62,0,0,1-.87,0c-1-.77-2.07-1.44-2.39-2.78a.2.2,0,0,0-.28-.16c-.16,0-.15.17-.11.3a3.09,3.09,0,0,0,.15.47A6.92,6.92,0,0,0,65,86.15,1.09,1.09,0,0,0,65.26,86.23Z" transform="translate(-19.3 -6.94)"/><path class="cls-6" d="M74,67a8.68,8.68,0,0,1-17.31,1.09,9.24,9.24,0,0,1,.54-4.17,22.09,22.09,0,0,1,1.93-4.33,10.29,10.29,0,0,1,2.36-2.74,5.87,5.87,0,0,1,8.07.41,13.65,13.65,0,0,1,3.32,5.36A11.67,11.67,0,0,1,74,67ZM63.14,64.3a2,2,0,0,1-.31,1.86.72.72,0,0,1-1.21,0,1.66,1.66,0,0,1-.39-1,2.67,2.67,0,0,1,.53-2.08,13,13,0,0,0-3.58.35c-.23,0-.33.21-.42.41a7.88,7.88,0,0,0-.57,4.47,8.16,8.16,0,1,0,15.59-4.39.76.76,0,0,0-.62-.51c-.83-.17-1.66-.25-2.5-.36-1.09-.14-2.19,0-3.26-.15-1.33-.18-2.63.1-4,0,.3.31.65.45.59.86a.82.82,0,0,0-1.22-.2.79.79,0,0,0-.2,1.09.75.75,0,0,0,.77.39C62.83,65,63,64.71,63.14,64.3Zm2.13-1.84a42.68,42.68,0,0,1,6.82.54c.37.07.53,0,.38-.37a13.26,13.26,0,0,0-3.41-5.3,5.48,5.48,0,0,0-7.57,0,13.27,13.27,0,0,0-3.42,5.29c-.16.4,0,.44.38.38A42.69,42.69,0,0,1,65.27,62.46Z" transform="translate(-19.3 -6.94)"/><path class="cls-6" d="M73.4,79a7.39,7.39,0,0,0,1-1.55,8.78,8.78,0,0,0,.37-2.86c0-1.62-.09-3.24-.23-4.86A7.7,7.7,0,0,1,74.76,67a1.55,1.55,0,0,1,1.57-1.3.47.47,0,0,1,.5.36c.84,2.91,1.26,5.83.25,8.78a7.92,7.92,0,0,1-2.15,3.34A3.5,3.5,0,0,1,73.4,79Zm1.45-1.52a6.35,6.35,0,0,0,2-3.26,14.1,14.1,0,0,0-.33-7.9c-.13-.44-.39-.37-.65-.23a1.46,1.46,0,0,0-.69.92,5.87,5.87,0,0,0-.27,2.13c.07,1.37.2,2.75.22,4.12A15.16,15.16,0,0,1,74.86,77.52Z" transform="translate(-19.3 -6.94)"/><path class="cls-6" d="M57.13,79.07a5.3,5.3,0,0,1-2.7-2.21,9.73,9.73,0,0,1-1.61-5.73,19.05,19.05,0,0,1,.8-5c.05-.19.09-.41.36-.44a1.31,1.31,0,0,1,1.24.39,3.59,3.59,0,0,1,.71,2.31c.05,1.83-.17,3.66-.25,5.49a15.65,15.65,0,0,0,.12,2.59A4.43,4.43,0,0,0,57.13,79.07Zm-1.62-1.63a1.14,1.14,0,0,0,0-.29,20.5,20.5,0,0,1-.15-5.1,18.58,18.58,0,0,0,.05-4.49,2,2,0,0,0-.69-1.4c-.41-.29-.67-.2-.81.28a18.28,18.28,0,0,0-.67,3.32,10.37,10.37,0,0,0,1.16,6.38A3.37,3.37,0,0,0,55.51,77.44Zm.13.13,0,0v0Z" transform="translate(-19.3 -6.94)"/><path class="cls-6" d="M65.26,86.23a1.09,1.09,0,0,1-.24-.08,6.92,6.92,0,0,1-2.82-2.76,3.09,3.09,0,0,1-.15-.47c0-.12,0-.25.11-.3a.2.2,0,0,1,.28.16c.32,1.34,1.41,2,2.39,2.78a.62.62,0,0,0,.87,0,5.59,5.59,0,0,0,2.43-2.69c0-.15.1-.29.29-.22s.12.2.1.32a2,2,0,0,1-.37.84,8.21,8.21,0,0,1-2.55,2.29A2.39,2.39,0,0,1,65.26,86.23Z" transform="translate(-19.3 -6.94)"/><path class="cls-5" d="M63,63.79c.06-.41-.29-.55-.59-.86,1.4.08,2.7-.21,4,0,1.07.15,2.18,0,3.26.15.83.11,1.67.19,2.5.36a.76.76,0,0,1,.62.51,8.16,8.16,0,1,1-15.59,4.39,7.88,7.88,0,0,1,.57-4.47c.09-.2.19-.36.42-.41a13,13,0,0,1,3.58-.35,2.67,2.67,0,0,0-.53,2.08,1.66,1.66,0,0,0,.39,1,.72.72,0,0,0,1.21,0,2,2,0,0,0,.31-1.86A1,1,0,0,0,63,63.79Zm5.56-.22h0c0-.37-.26-.49-.57-.51s-.58,0-.66.39l-.3.39A2.76,2.76,0,0,0,67.2,66a.76.76,0,0,0,1.24.23,2.28,2.28,0,0,0,.23-2.45h0C68.67,63.71,68.7,63.59,68.55,63.56Z" transform="translate(-19.3 -6.94)"/><path class="cls-7" d="M65.27,62.46a42.68,42.68,0,0,0-6.82.52c-.37.07-.53,0-.38-.38a13.27,13.27,0,0,1,3.42-5.29,5.48,5.48,0,0,1,7.57,0,13.26,13.26,0,0,1,3.41,5.3c.16.4,0,.44-.38.37A42.68,42.68,0,0,0,65.27,62.46Z" transform="translate(-19.3 -6.94)"/><path class="cls-7" d="M63,63.79a1,1,0,0,1,.16.51c-.12.42-.32.75-.82.77a.75.75,0,0,1-.77-.39.79.79,0,0,1,.2-1.09A.82.82,0,0,1,63,63.79Z" transform="translate(-19.3 -6.94)"/><path class="cls-5" d="M74.86,77.52a15.16,15.16,0,0,0,.24-4.23c0-1.38-.15-2.75-.22-4.12A5.87,5.87,0,0,1,75.15,67a1.46,1.46,0,0,1,.69-.92c.27-.13.53-.21.65.23a14.1,14.1,0,0,1,.33,7.9A6.35,6.35,0,0,1,74.86,77.52Z" transform="translate(-19.3 -6.94)"/><path class="cls-5" d="M55.51,77.44a3.37,3.37,0,0,1-1.07-1.29,10.37,10.37,0,0,1-1.16-6.38,18.28,18.28,0,0,1,.67-3.32c.14-.48.4-.57.81-.28a2,2,0,0,1,.69,1.4,18.58,18.58,0,0,1-.05,4.49,20.5,20.5,0,0,0,.15,5.1A1.14,1.14,0,0,1,55.51,77.44Z" transform="translate(-19.3 -6.94)"/><polygon class="cls-5" points="36.34 70.63 36.3 70.65 36.31 70.61 36.34 70.63"/><path class="cls-6" d="M68.68,63.81a2.28,2.28,0,0,1-.23,2.45A.76.76,0,0,1,67.2,66a2.76,2.76,0,0,1-.18-2.2c0,.84.32,1.18.92,1.13S68.72,64.58,68.68,63.81Z" transform="translate(-19.3 -6.94)"/><path class="cls-7" d="M68.68,63.81c0,.77-.18,1.11-.73,1.16s-.87-.29-.92-1.13l.3-.39a1.07,1.07,0,0,1,1.23.12h0l.13.24Z" transform="translate(-19.3 -6.94)"/><path class="cls-6" d="M68.55,63.57a1.07,1.07,0,0,0-1.23-.12c.08-.37.37-.4.66-.39S68.54,63.2,68.55,63.57Z" transform="translate(-19.3 -6.94)"/><path class="cls-6" d="M68.67,63.81l-.13-.24C68.7,63.59,68.67,63.71,68.67,63.81Z" transform="translate(-19.3 -6.94)"/><path class="cls-8" d="M59.82,42.9c.55-1,1.76-1.48,2.77-2.06s2-1.66,1.67-2.78" transform="translate(-19.3 -6.94)"/></g><g id="Capa_2" data-name="Capa 2"><path class="cls-1" d="M65.12,51.78C60,51.78,54.5,49.6,54,44.73c-.2-1.88-.48-2.05-.57-2.11-.7-.44-.94-1-1-2.22,0-2.82.19-3.47.9-4a9.76,9.76,0,0,0,.21-2.81l0-.25a11.79,11.79,0,0,1,1.76-4.23l.12-.21a13.7,13.7,0,0,1,4.24-4.59,10.09,10.09,0,0,1,5.56-1.63h.48a11.27,11.27,0,0,1,6.32,2.11A15.54,15.54,0,0,1,75.9,28.9a8.07,8.07,0,0,1,1.42,4.47A8.42,8.42,0,0,0,77.49,36c.67.55.81,1.16.44,5.38,0,1-.14,1.52-.79,2-.1.07-.4.29-.86,2.22-1,4.28-6.34,6.19-11.16,6.19Z" transform="translate(-19.3 -6.94)"/><path class="cls-2" d="M65.29,23.69h.43a10.24,10.24,0,0,1,5.77,1.92,14.52,14.52,0,0,1,3.57,3.83,7.21,7.21,0,0,1,1.25,3.91c-.06,6.26,1.29.15.61,7.93,0,2.26-.64-.08-1.63,4.06-.85,3.58-5.53,5.42-10.19,5.42-4.86,0-9.7-2-10.14-6.16s-1.48-1.77-1.52-4.24c-.09-5.66,1.07-.56,1.11-6.78a11.21,11.21,0,0,1,1.78-4.18,12.74,12.74,0,0,1,3.93-4.26,9.08,9.08,0,0,1,5-1.47m0-2a11.07,11.07,0,0,0-6.1,1.79,14.68,14.68,0,0,0-4.56,4.92l-.12.2a12.63,12.63,0,0,0-1.87,4.49l-.06.49a16.82,16.82,0,0,1-.12,2.28c-.88.84-1,2-1,4.55a3.26,3.26,0,0,0,1.27,3A7.86,7.86,0,0,1,53,44.83c.59,5.49,6.52,7.94,12.13,7.94,5.21,0,11-2.15,12.13-7a7.86,7.86,0,0,1,.53-1.68,3.1,3.1,0,0,0,1.15-2.73c.32-3.71.32-5-.54-5.94a16.11,16.11,0,0,1-.07-2.08,9.09,9.09,0,0,0-1.59-5A16.54,16.54,0,0,0,72.68,24a12.26,12.26,0,0,0-6.87-2.3Z" transform="translate(-19.3 -6.94)"/><path class="cls-9" d="M61.1,31.24,61,31.08c-.46.15-.26.87.2.72a.66.66,0,0,0,0-1.29.72.72,0,0,0-.55,1.26c.34.34.87-.19.53-.53Z" transform="translate(-19.3 -6.94)"/><path class="cls-9" d="M70.49,30.8l.2.08c-.46-.14-.66.58-.2.72.85.27.94-1,.25-1.27a.64.64,0,0,0-.62,1.11c.4.28.77-.37.38-.65Z" transform="translate(-19.3 -6.94)"/><path class="cls-10" d="M60.69,31.47a.38.38,0,0,0,0-.75.38.38,0,0,0,0,.75Z" transform="translate(-19.3 -6.94)"/><path class="cls-10" d="M70.45,31.31a.38.38,0,0,0,0-.75.38.38,0,0,0,0,.75Z" transform="translate(-19.3 -6.94)"/><path class="cls-10" d="M61.23,31l0-.13-.11.27,0-.05-.27.11h.06L60.62,31V30.9l.38-.37h-.13l.32.19,0-.05,0,.29,0-.06-.36.28h.06L60.62,31l0,0-.11-.27.18-.18.27.11,0,0c-.34-.34-.87.19-.53.53.71.72,1.3-.94.4-.83a.39.39,0,0,0-.36.28c-.1.38.17.58.52.59a.38.38,0,0,0,.38-.37.44.44,0,1,0-.88.08c.06.47.81.48.75,0Z" transform="translate(-19.3 -6.94)"/><path class="cls-2" d="M70.69,31.33l.11-.08c.38-.29,0-.94-.38-.65l-.11.08c-.38.29,0,.94.38.65Z" transform="translate(-19.3 -6.94)"/><path class="cls-2" d="M70.79,30.67a.42.42,0,0,0-.7.05c-.22.43.43.81.65.38l0,0-.32.19h0l-.27-.11.06.06c.32.36.85-.17.53-.53Z" transform="translate(-19.3 -6.94)"/><path class="cls-2" d="M61.54,30.94l0-.09v.38l0-.09a.39.39,0,0,0-.06-.45h0l-.55.42.09.05-.17-.22,0,.11,0-.29.17.09,0,.29,0,0-.22.17H61c.47-.09.27-.81-.2-.72a.51.51,0,0,0,.1,1,.59.59,0,0,0,.42-1.07.38.38,0,0,0-.55.42.5.5,0,0,0,.18.32l-.06-.45a.53.53,0,0,0,0,.56c.23.43.87,0,.65-.38Z" transform="translate(-19.3 -6.94)"/><path class="cls-2" d="M70.15,31a4.15,4.15,0,0,1,.68,0c.48.05.48-.7,0-.75a4.15,4.15,0,0,0-.68,0c-.48,0-.48.78,0,.75Z" transform="translate(-19.3 -6.94)"/><path class="cls-2" d="M70.76,31.24a.38.38,0,0,0,0-.75.38.38,0,0,0,0,.75Z" transform="translate(-19.3 -6.94)"/><path class="cls-2" d="M70.26,31.27a.38.38,0,0,0,0-.75.38.38,0,0,0,0,.75Z" transform="translate(-19.3 -6.94)"/><path class="cls-2" d="M61.12,31.34a.38.38,0,0,0,0-.75.38.38,0,0,0,0,.75Z" transform="translate(-19.3 -6.94)"/><path class="cls-4" d="M60.39,30.49c-.08.41-.08.72.4.85a.63.63,0,0,0,.84-.6c0-.48-.72-.48-.75,0v.11l.11-.27,0,0,.11.27q0-.1,0-.19c.09-.47-.63-.67-.72-.2Z" transform="translate(-19.3 -6.94)"/><path class="cls-4" d="M69.88,30.51a.46.46,0,0,0,0,.43.5.5,0,0,0,.09.13c.16.15.13.1.11-.06a.39.39,0,0,0,.38.38.81.81,0,0,0,.64-.35c.3-.37-.23-.91-.53-.53q-.21.15-.11.13l.38.38a.6.6,0,0,0-.5-.57l.22.17,0-.05v.38l0-.05c.19-.44-.46-.82-.65-.38Z" transform="translate(-19.3 -6.94)"/><path class="cls-11" d="M59.86,45.32a3.64,3.64,0,0,1-.46-2.55,5.84,5.84,0,0,1,.82-2.1,6.68,6.68,0,0,1,2.2-2.21A2.48,2.48,0,0,1,64,38.2a7.48,7.48,0,0,0,1.27.08,2.74,2.74,0,0,0,1.88-.95,2.7,2.7,0,0,1,1.93,1.9,4.73,4.73,0,0,1,0,2.65,5.74,5.74,0,0,1-2.72,3.51,4.21,4.21,0,0,1-2.84.58,13.81,13.81,0,0,1-1.48-.37A7.27,7.27,0,0,0,59.86,45.32Z" transform="translate(-19.3 -6.94)"/><path class="cls-11" d="M65.19,45.1a3.64,3.64,0,0,1-.46-2.55,5.84,5.84,0,0,1,.82-2.1,6.68,6.68,0,0,1,2.2-2.21A2.48,2.48,0,0,1,69.35,38a7.48,7.48,0,0,0,1.27.08,2.74,2.74,0,0,0,1.88-.95A2.7,2.7,0,0,1,74.44,39a4.73,4.73,0,0,1,0,2.65,5.74,5.74,0,0,1-2.72,3.51,4.21,4.21,0,0,1-2.84.58,13.81,13.81,0,0,1-1.48-.37A7.27,7.27,0,0,0,65.19,45.1Z" transform="translate(-19.3 -6.94)"/><path class="cls-11" d="M57.81,42.24A3.2,3.2,0,0,1,57.29,40a5.05,5.05,0,0,1,.61-1.8,4.22,4.22,0,0,1,1.63-1.74c.3-.15.57,0,1.09.29a5.62,5.62,0,0,0,1,.6,1.71,1.71,0,0,0,1.86-.4,2.11,2.11,0,0,1,1.86,1.64,4.16,4.16,0,0,1-.06,2.36A4.39,4.39,0,0,1,63,43.61a2.34,2.34,0,0,1-2.14.05A11.68,11.68,0,0,1,59.74,43,5.18,5.18,0,0,0,57.81,42.24Z" transform="translate(-19.3 -6.94)"/></g><g id="Capa_6" data-name="Capa 6"><path class="cls-4" d="M57.92,31.43a7.34,7.34,0,0,1,2.32-1,4.25,4.25,0,0,1,1.32-.13,2.35,2.35,0,0,1,.7.15A1,1,0,0,1,63,31.53c0,.08,0,.09,0,.21a.37.37,0,0,1-.05.14.38.38,0,0,1-.18.15.36.36,0,0,1-.25,0c-.18-.09-.11-.07-.15-.1s0,0,0,0a.36.36,0,0,0,.35.07c.18-.11.07,0,0,0a1.73,1.73,0,0,1-.74.26,6.4,6.4,0,0,1-1.3,0,10,10,0,0,1-1.28-.15.22.22,0,0,1-.16-.21.72.72,0,0,1,0-.1.75.75,0,0,1,0-.19.86.86,0,0,1,.18-.31A1.23,1.23,0,0,1,60,31a1.56,1.56,0,0,0-.38.46.62.62,0,0,0-.07.25.44.44,0,0,0,0,.12l0,.05s0,0-.08-.08l1.19-.09a8.55,8.55,0,0,0,1.17-.16,1.3,1.3,0,0,0,.42-.13h0a.45.45,0,0,1,.16-.11.42.42,0,0,1,.42.09l0,0s0,0-.15-.09a.36.36,0,0,0-.25,0,.38.38,0,0,0-.18.14.32.32,0,0,0,0,.12s0-.08,0-.1a.56.56,0,0,0,0-.16c0-.11-.38-.28-.73-.32a4.8,4.8,0,0,0-1.15,0A19.2,19.2,0,0,0,57.92,31.43Z" transform="translate(-19.3 -6.94)"/><path class="cls-4" d="M68.14,31.75a1,1,0,0,1-.36.07.33.33,0,0,1-.3-.29,1.49,1.49,0,0,1,0-.78,1.62,1.62,0,0,1,1.35-.8,10.4,10.4,0,0,1,1.45-.1,2.67,2.67,0,0,1,1.57.42.89.89,0,0,1,.3.5,1.41,1.41,0,0,1,0,.47.9.9,0,0,1-.12.34.83.83,0,0,1-.23.2,1.79,1.79,0,0,1-.39.18,4.16,4.16,0,0,1-1.52.13,1.42,1.42,0,0,1-.81-.29.76.76,0,0,1-.24-.43,1,1,0,0,1,0-.46c.11-.24.28-.2.41-.27l.37,0,.71,0-.67.23-.32.1c-.06.05-.18.1-.15.11,0,.39.25.5.7.48a4.33,4.33,0,0,0,1.26-.22,1.6,1.6,0,0,0,.24-.12c.09-.06,0,0,0,0,0-.23,0-.26-.06-.31a5.35,5.35,0,0,0-2.47-.31c-.43,0-.89.08-1.08.37a1.22,1.22,0,0,0-.15.6C67.63,31.7,67.91,31.76,68.14,31.75Z" transform="translate(-19.3 -6.94)"/><path class="cls-4" d="M63.57,27.44A1.38,1.38,0,0,1,64,26.05a2.27,2.27,0,0,1,1.43-.52,4.45,4.45,0,0,1,1.38.14,1.34,1.34,0,0,1,1,1,1.92,1.92,0,0,0-1.14-.24l-1.21.09a3.13,3.13,0,0,0-1,.16A2,2,0,0,0,63.57,27.44Z" transform="translate(-19.3 -6.94)"/></g></svg>