<svg xmlns="http://www.w3.org/2000/svg" viewBox="0 0 218 293.5"><defs><style>.cls-1{fill:#ffe966;}.cls-1,.cls-2,.cls-3,.cls-5,.cls-6{stroke:#fff;}.cls-1,.cls-2,.cls-3,.cls-4,.cls-5,.cls-6,.cls-7{stroke-miterlimit:10;}.cls-1,.cls-2,.cls-3{stroke-width:3px;}.cls-2,.cls-5{fill:#fff766;}.cls-3{fill:#fc9f4c;}.cls-4,.cls-6,.cls-7{fill:#fff;}.cls-4,.cls-7{stroke:#000;}.cls-5{stroke-width:4px;}.cls-6,.cls-7{stroke-width:5px;}</style></defs><title>duck</title><g id="Capa_4" data-name="Capa 4"><ellipse class="cls-1" cx="109" cy="146.75" rx="107.5" ry="145.25"/><path class="cls-2" d="M240.82,109.65s-17.23-6.56-14.77,32,4.1,59.9-6.56,71.39C219.49,213,265.44,188.43,240.82,109.65Z" transform="translate(-40.5 -4.75)"/><path class="cls-2" d="M57.59,109.65s17.23-6.56,14.77,32-4.1,59.9,6.56,71.39C78.93,213,33,188.43,57.59,109.65Z" transform="translate(-40.5 -4.75)"/></g><g id="Capa_2" data-name="Capa 2"><path class="cls-3" d="M88,88.31S106,26.77,149.5,26.77,211,88.31,211,88.31Z" transform="translate(-40.5 -4.75)"/></g><g id="Capa_3" data-name="Capa 3"><path class="cls-4" d="M211,88.31" transform="translate(-40.5 -4.75)"/><path class="cls-5" d="M88.36,89.44a68.11,68.11,0,1,0,121.91-.72" transform="translate(-40.5 -4.75)"/><path class="cls-2" d="M210.28,89.33C199,86,176,83.8,149.5,83.8c-26.83,0-50,2.3-61.14,5.64" transform="translate(-40.5 -4.75)"/></g><g id="Capa_5" data-name="Capa 5"><ellipse class="cls-6" cx="130.34" cy="95.87" rx="5.74" ry="11.49"/><ellipse class="cls-6" cx="84.38" cy="95.87" rx="5.74" ry="11.49"/></g><g id="Capa_6" data-name="Capa 6"><path class="cls-2" d="M174.53,245c-.32,14-25,27.9-25,27.9s-24.62-14-24.62-27.9" transform="translate(-40.5 -4.75)"/><circle class="cls-7" cx="84.73" cy="91.76" r="4.04"/><circle class="cls-7" cx="129.99" cy="90.95" r="4.04"/></g></svg>